<?xml version="1.0" encoding="utf-8"?>
<!-- Generator: Adobe Illustrator 26.0.0, SVG Export Plug-In . SVG Version: 6.00 Build 0)  -->
<svg version="1.1" id="Capa_1" xmlns="http://www.w3.org/2000/svg" xmlns:xlink="http://www.w3.org/1999/xlink" x="0px" y="0px"
	 viewBox="0 0 1000 1000" style="enable-background:new 0 0 1000 1000;" xml:space="preserve">
<style type="text/css">
	.st0{fill:#FFFFFF;}
	.st1{fill:#A60000;}
</style>
<g>
	<circle class="st0" cx="500" cy="500" r="500"/>
	<path class="st1" d="M750,284.5v155.2c0,19.1-15.4,34.5-34.5,34.5H560.3c-19.1,0-34.5-15.4-34.5-34.5c0-19.1,15.4-34.5,34.5-34.5
		h68.3c-32.3-42.8-83.2-68.7-137.5-68.7c-94.9,0-172.2,77.2-172.2,172.2s77.3,172.2,172.2,172.2c37.6,0,73.3-11.9,103.3-34.4
		c15.3-11.3,36.9-8.4,48.3,6.9c11.4,15.3,8.4,36.9-6.9,48.3c-42.1,31.6-92,48.3-144.6,48.3c-133,0-241.3-108.3-241.3-241.3
		s108.3-241.3,241.3-241.3c74.5,0,144.4,35,189.8,92.8v-75.7c0-19.1,15.4-34.5,34.5-34.5C734.6,250.1,750,265.5,750,284.5z"/>
</g>
</svg>
