<?xml version="1.0" encoding="utf-8"?>
<!-- Generator: Adobe Illustrator 26.0.0, SVG Export Plug-In . SVG Version: 6.00 Build 0)  -->
<svg version="1.1" id="Capa_1" xmlns="http://www.w3.org/2000/svg" xmlns:xlink="http://www.w3.org/1999/xlink" x="0px" y="0px"
	 viewBox="0 0 448 512" style="enable-background:new 0 0 448 512;" xml:space="preserve">
<style type="text/css">
	.st0{fill:#FFFFFF;}
</style>
<path class="st0" d="M0,96c0-15.2,14.3-27.5,32-27.5h384c17.7,0,32,12.3,32,27.5s-14.3,27.5-32,27.5H32C14.3,123.5,0,111.2,0,96z"/>
<path class="st0" d="M0,256c0-15.2,14.3-27.5,32-27.5h384c17.7,0,32,12.3,32,27.5s-14.3,27.5-32,27.5H32C14.3,283.5,0,271.2,0,256z"
	/>
<path class="st0" d="M416,443.5H32c-17.7,0-32-12.3-32-27.5s14.3-27.5,32-27.5h384c17.7,0,32,12.3,32,27.5S433.7,443.5,416,443.5z"
	/>
</svg>
