<?xml version="1.0" encoding="utf-8"?>
<!-- Generator: Adobe Illustrator 26.0.0, SVG Export Plug-In . SVG Version: 6.00 Build 0)  -->
<svg version="1.1" id="Capa_1" xmlns="http://www.w3.org/2000/svg" xmlns:xlink="http://www.w3.org/1999/xlink" x="0px" y="0px"
	 viewBox="0 0 750 614.9" style="enable-background:new 0 0 750 614.9;" xml:space="preserve">
<style type="text/css">
	.st0{fill:#FFFFFF;}
</style>
<path class="st0" d="M0,412.1c0.4-1.9,0.9-3.7,1-5.5c5.5-74.4,53.8-139.4,123.3-166.8c19-7.5,38.7-12,59.2-13.1
	c5.6-0.3,11.2-0.5,16.8-0.5c117.2,0,234.4,0,351.6,0c31.5,0,61.4,6.4,89.4,20.9c55,28.6,89.5,73.3,103.4,133.7
	c4.5,19.7,5.5,39.8,3.4,59.9c-5,48.4-25.2,89.6-60.6,123.2c-27.2,25.8-59.5,42.2-96.3,49.6c-3.1,0.6-6.3,0.9-9.5,0.9
	c-17.5,0.1-35-0.1-52.5,0.1c-6.5,0.1-12.7-0.7-19-2.2c-35.9-8.3-67-25.2-93.4-50.7c-1.5-1.5-3.1-2.2-5.2-2.2
	c-24.5,0.1-49,0.1-73.6,0c-2.2,0-3.7,0.6-5.3,2.2c-28.3,27.3-61.7,44.8-100.4,52.1c-2.2,0.4-4.6,0.7-6.8,0.7
	c-17.5,0-35-0.1-52.5,0.1c-7.7,0.1-15.1-0.9-22.5-2.7C81.2,595.1,26.4,542.2,7.5,473.7c-3.3-12-5.5-24.1-6.4-36.5
	c-0.1-2-0.7-3.9-1.1-5.8C0,424.9,0,418.5,0,412.1z M374.8,277.5c-58.6,0-117.3,0-175.9,0c-15.6,0-30.9,1.9-45.8,6.5
	c-71.6,22.5-113.8,95.2-97.9,168.5c15.7,72.6,86.4,124.8,166,111.1c36.3-6.2,65.8-24.4,88.7-53.2c1.3-1.6,2.6-2.3,4.7-2.3
	c40.1,0.1,80.2,0.1,120.4,0c2,0,3.3,0.6,4.5,2.2c26.7,33.3,61.3,51.9,103.8,55.2c22.8,1.8,44.8-2,66-10.8
	c62.1-26.1,97.9-91.7,86.2-157.9C687,348.6,654.9,308.2,610,289c-18.9-8.1-38.7-11.6-59.3-11.6C492.1,277.5,433.5,277.5,374.8,277.5
	z"/>
<path class="st0" d="M750,11.4c-0.3,2.8-0.6,5.5-1.1,8.2c-5.5,34.3-21.9,62.3-49,83.9c-19.1,15.2-40.9,24.1-65,27.1
	c-6.1,0.8-12.4,0.9-18.6,0.9c-44.8,0.1-89.7,0-134.5,0.1c-18.7,0-35.7,5.5-50.4,17.1c-17.4,13.8-27.6,31.8-30.4,53.9
	c-0.4,2.9-0.5,5.9-0.8,9.1c-17,0-33.9,0-51.3,0c0.2-4.1,0.3-8.1,0.7-12.1c2-20.7,8.4-40.1,19.7-57.6c20.6-31.9,49.5-51.8,86.9-59.3
	c8.6-1.7,17.2-2.4,26-2.4c45.3,0,90.6,0.1,136,0c22.7,0,42.2-8.1,58.1-24.3c14.6-14.9,22.2-33,22.8-53.9c0-0.7,0-1.4-0.1-2.1
	c17,0,34,0,51,0C750,3.8,750,7.6,750,11.4z"/>
<path class="st0" d="M167.3,392.9c0-1.4,0-2.5,0-3.5c0-12.7,0-25.4,0-38.1c0-1.8,0-3.6,0.5-5.4c1.6-6.2,7-10.6,13.6-10.6
	c9.7-0.1,19.4-0.1,29.1,0c8.3,0.1,14.3,6.1,14.5,14.4c0.1,4.7,0,9.4,0,14.1c0,8.5,0,17,0,25.5c0,1.1,0,2.1,0,3.6c1.4,0,2.4,0,3.5,0
	c13,0,26,0,39,0c2.9,0,5.6,0.5,8,2c4.4,2.7,7,6.7,7.1,11.8c0.2,10,0.2,20,0,30c-0.2,7.8-6.5,13.8-14.5,13.8c-13.2,0.1-26.4,0-39.6,0
	c-1.1,0-2.1,0-3.5,0c0,1.4,0,2.5,0,3.5c0,12.7,0,25.4,0,38.1c0,2.1-0.2,4.2-0.8,6.2c-1.8,5.7-7,9.7-13,9.8c-10,0.1-20,0.1-30,0
	c-7.4-0.1-13.3-5.9-13.8-13.3c-0.1-1.2-0.1-2.4-0.1-3.6c0-12.4,0-24.8,0-37.2c0-1.1,0-2.1,0-3.5c-1.4,0-2.5,0-3.6,0
	c-13.1,0-26.2,0-39.3,0c-5.8,0-10.2-2.5-13.1-7.5c-1.3-2.2-1.8-4.7-1.8-7.2c0-9.4-0.1-18.8,0-28.2c0-9.8,8.1-14.9,15.1-14.8
	c13,0.2,26,0.1,39,0.1C164.8,392.9,165.9,392.9,167.3,392.9z"/>
<path class="st0" d="M582.2,421.8c-0.1-15.9,12.7-28.9,28.6-28.9c16.1-0.1,29.1,12.9,29.1,28.8c0,15.7-12.9,28.7-28.6,28.8
	C595.3,450.6,582.3,437.9,582.2,421.8z"/>
<path class="st0" d="M524.4,421.5c0.1,16-12.7,28.9-28.6,29c-16,0.1-29.1-12.9-29.1-28.9c0-15.9,12.9-28.8,28.8-28.8
	C511.5,392.9,524.3,405.6,524.4,421.5z"/>
<path class="st0" d="M553.1,508.1c-15.9,0-28.8-13-28.7-28.9c0.1-16,13.1-28.9,29.2-28.7c15.8,0.1,28.7,13.2,28.5,29.1
	C582,495.6,569.1,508.2,553.1,508.1z"/>
<path class="st0" d="M553.4,335.2c16,0,28.7,12.9,28.7,28.8c0,15.9-12.9,28.8-28.8,28.8c-16,0-29.1-13.2-28.9-29
	C524.5,347.9,537.5,335.2,553.4,335.2z"/>
</svg>
