<?xml version="1.0" encoding="utf-8"?>
<!-- Generator: Adobe Illustrator 26.0.0, SVG Export Plug-In . SVG Version: 6.00 Build 0)  -->
<svg version="1.1" id="Capa_1" xmlns="http://www.w3.org/2000/svg" xmlns:xlink="http://www.w3.org/1999/xlink" x="0px" y="0px"
	 viewBox="0 0 512 512" style="enable-background:new 0 0 512 512;" xml:space="preserve">
<style type="text/css">
	.st0{fill:#FFFFFF;}
</style>
<path class="st0" d="M257.5-0.1C400.6,1.2,513.1,117.4,512,258c-1.2,141.7-115.8,254.6-256.1,254.1C109.7,511.7-0.5,393.5,0,255.5
	C0.5,113.6,114.5,0,257.5-0.1z M350.1,320.4c26.6,0,46.5-10.4,62.2-29c6.1-7.2,5.5-17.8-1.1-23.6c-7-6.2-16.6-5.5-23.5,1.6
	c-1.9,1.9-3.6,4-5.5,5.8c-10.3,10.1-22.6,14.1-37,12c-12.1-1.7-20.6-8.7-28.4-17.4c-6.4-7.2-17.1-7.9-23.6-2.2
	c-6.2,5.5-7,17.1-1.2,23.8C307.7,310,327.4,320.3,350.1,320.4z M156.4,320.4c27.8,0.1,47.7-10.2,63.6-28.8c5.8-6.8,5-18.2-1.2-23.9
	c-6.7-6.1-16.5-5.3-23.4,1.9c-1.7,1.8-3.3,3.7-5.1,5.5c-10.4,10.4-22.8,14.4-37.5,12.2c-12.1-1.8-20.5-8.9-28.4-17.5
	c-6.4-7.1-17.3-7.7-23.6-1.9c-6.1,5.7-6.7,17.1-0.9,23.9C115.5,310,135.1,320.2,156.4,320.4z M448.2,204.3c0-4.2-4.7-8.1-10.4-11.2
	c-11.1-6-22.3-11.7-33.1-18.2c-14.7-8.9-25-22.4-35.5-35.8c-2.9-3.7-6.5-7.2-10.4-9.7c-5.5-3.5-13.4-1.4-18.3,3.9
	c-5.3,5.7-6,11.4-1.7,17.9c3.7,5.5,7.9,10.6,11.6,16c18.9,27.5,46.1,43.8,76.4,55.6C437.7,227,448.2,219.1,448.2,204.3z M63.8,206.1
	c0.2,14,11.1,20.8,23.2,16c35.6-14.1,64-37.1,85.6-68.6c5.4-7.9,4.3-15.3-3.3-21.5c-7.6-6.2-14.4-5.9-21.1,1.4
	c-4.5,4.8-8.7,9.9-12.7,15.1c-12,15.2-26.7,27-44,35.6c-6.5,3.2-13,6.6-19.3,10.2C67.1,197.2,63.7,201.3,63.8,206.1z M256.2,416.4
	c15.8,0,31.7,0.2,47.5-0.1c10.3-0.1,16.6-6.8,16.5-16.4c-0.1-9.3-6.6-15.8-16.5-15.8c-31.7-0.2-63.4-0.1-95.1,0
	c-9,0-14.7,4.7-16.3,12.4c-2.2,11.2,4.5,19.6,16.3,19.8C224.5,416.6,240.3,416.4,256.2,416.4z"/>
</svg>
